<mxfile host="app.diagrams.net" agent="Mozilla/5.0 (Windows NT 10.0; Win64; x64) AppleWebKit/537.36 (KHTML, like Gecko) Chrome/134.0.0.0 Safari/537.36" version="26.0.16">
  <diagram name="Page-1" id="uY-ux5SM715pgpHfwJ75">
    <mxGraphModel dx="808" dy="438" grid="1" gridSize="10" guides="1" tooltips="1" connect="1" arrows="1" fold="1" page="1" pageScale="1" pageWidth="827" pageHeight="1169" math="0" shadow="0">
      <root>
        <mxCell id="0" />
        <mxCell id="1" parent="0" />
        <mxCell id="HiHLQ8zvASw_HJKXryYm-1" value="" style="rounded=0;whiteSpace=wrap;html=1;fillColor=#FFFFFF;strokeColor=#000000;" parent="1" vertex="1">
          <mxGeometry x="70" y="330" width="1180" height="310" as="geometry" />
        </mxCell>
        <mxCell id="HiHLQ8zvASw_HJKXryYm-2" value="Stellt das Frontend bereit." style="whiteSpace=wrap;html=1;aspect=fixed;fillColor=#f5f5f5;strokeColor=#666666;fontColor=#333333;" parent="1" vertex="1">
          <mxGeometry x="535" y="140" width="110" height="110" as="geometry" />
        </mxCell>
        <mxCell id="HiHLQ8zvASw_HJKXryYm-4" style="edgeStyle=orthogonalEdgeStyle;rounded=0;orthogonalLoop=1;jettySize=auto;html=1;exitX=0.5;exitY=0;exitDx=0;exitDy=0;" parent="1" edge="1">
          <mxGeometry relative="1" as="geometry">
            <mxPoint x="295" y="270" as="targetPoint" />
            <mxPoint x="295" y="270" as="sourcePoint" />
          </mxGeometry>
        </mxCell>
        <mxCell id="HiHLQ8zvASw_HJKXryYm-5" value="" style="endArrow=none;dashed=1;html=1;dashPattern=1 3;strokeWidth=2;rounded=0;exitX=0.5;exitY=1;exitDx=0;exitDy=0;entryX=0.544;entryY=0.009;entryDx=0;entryDy=0;entryPerimeter=0;" parent="1" source="HiHLQ8zvASw_HJKXryYm-2" target="HiHLQ8zvASw_HJKXryYm-35" edge="1">
          <mxGeometry width="50" height="50" relative="1" as="geometry">
            <mxPoint x="675.0000000000001" y="250" as="sourcePoint" />
            <mxPoint x="390" y="280" as="targetPoint" />
          </mxGeometry>
        </mxCell>
        <mxCell id="HiHLQ8zvASw_HJKXryYm-8" value="&lt;font style=&quot;font-size: 12px;&quot;&gt;Mobile App&lt;/font&gt;" style="text;html=1;align=center;verticalAlign=middle;whiteSpace=wrap;rounded=0;fontSize=9;" parent="1" vertex="1">
          <mxGeometry x="547.5" y="140" width="85" height="30" as="geometry" />
        </mxCell>
        <mxCell id="HiHLQ8zvASw_HJKXryYm-9" value="&lt;font style=&quot;font-size: 8px;&quot;&gt;[Container: Android-Studio]&lt;/font&gt;" style="text;html=1;align=center;verticalAlign=middle;whiteSpace=wrap;rounded=0;" parent="1" vertex="1">
          <mxGeometry x="529.75" y="170" width="115.25" height="10" as="geometry" />
        </mxCell>
        <mxCell id="HiHLQ8zvASw_HJKXryYm-10" value="&lt;font style=&quot;font-size: 11px;&quot;&gt;Erlaubt den User sich beim System anzumelden und zu registrieren.&lt;/font&gt;" style="rounded=0;whiteSpace=wrap;html=1;fillColor=#ffe6cc;strokeColor=#d79b00;" parent="1" vertex="1">
          <mxGeometry x="100" y="360" width="180" height="110" as="geometry" />
        </mxCell>
        <mxCell id="HiHLQ8zvASw_HJKXryYm-11" value="&lt;font size=&quot;1&quot;&gt;Login Repository&lt;/font&gt;" style="text;html=1;align=center;verticalAlign=middle;whiteSpace=wrap;rounded=0;fontSize=9;" parent="1" vertex="1">
          <mxGeometry x="100" y="360" width="140" height="30" as="geometry" />
        </mxCell>
        <mxCell id="HiHLQ8zvASw_HJKXryYm-12" value="&lt;font style=&quot;font-size: 8px;&quot;&gt;[Container: Kotlin}&lt;/font&gt;" style="text;html=1;align=center;verticalAlign=middle;whiteSpace=wrap;rounded=0;" parent="1" vertex="1">
          <mxGeometry x="116.19" y="380" width="107.62" height="10" as="geometry" />
        </mxCell>
        <mxCell id="HiHLQ8zvASw_HJKXryYm-13" value="" style="endArrow=none;dashed=1;html=1;dashPattern=1 3;strokeWidth=2;rounded=0;entryX=0.5;entryY=1;entryDx=0;entryDy=0;exitX=0.5;exitY=0;exitDx=0;exitDy=0;" parent="1" source="HiHLQ8zvASw_HJKXryYm-11" target="HiHLQ8zvASw_HJKXryYm-2" edge="1">
          <mxGeometry width="50" height="50" relative="1" as="geometry">
            <mxPoint x="320" y="410" as="sourcePoint" />
            <mxPoint x="370" y="360" as="targetPoint" />
          </mxGeometry>
        </mxCell>
        <mxCell id="HiHLQ8zvASw_HJKXryYm-15" value="&lt;div&gt;Sendet POST und GET Anfragen an das Backend.&lt;/div&gt;" style="rounded=0;whiteSpace=wrap;html=1;fontSize=10;align=center;fillColor=#d5e8d4;strokeColor=#82b366;" parent="1" vertex="1">
          <mxGeometry x="533.63" y="519.88" width="136.19" height="90" as="geometry" />
        </mxCell>
        <mxCell id="HiHLQ8zvASw_HJKXryYm-21" value="Stellt KI-Funktionalität bereit indem es die Bilder bewertet und an die API zurückschickt&lt;div&gt;&lt;/div&gt;" style="rounded=0;whiteSpace=wrap;html=1;fontSize=10;align=center;fillColor=#d5e8d4;strokeColor=#82b366;" parent="1" vertex="1">
          <mxGeometry x="535" y="650" width="140" height="90" as="geometry" />
        </mxCell>
        <mxCell id="HiHLQ8zvASw_HJKXryYm-22" value="&lt;font style=&quot;font-size: 12px;&quot;&gt;Gateway-API&lt;/font&gt;" style="text;html=1;align=center;verticalAlign=middle;whiteSpace=wrap;rounded=0;fontSize=9;" parent="1" vertex="1">
          <mxGeometry x="545" y="650" width="112.24" height="20" as="geometry" />
        </mxCell>
        <mxCell id="HiHLQ8zvASw_HJKXryYm-23" value="&lt;font style=&quot;font-size: 8px;&quot;&gt;[Container: Python]&lt;/font&gt;" style="text;html=1;align=center;verticalAlign=middle;whiteSpace=wrap;rounded=0;" parent="1" vertex="1">
          <mxGeometry x="561.19" y="660" width="79.87" height="20" as="geometry" />
        </mxCell>
        <mxCell id="HiHLQ8zvASw_HJKXryYm-24" value="" style="endArrow=none;dashed=1;html=1;dashPattern=1 3;strokeWidth=2;rounded=0;entryX=0.5;entryY=1;entryDx=0;entryDy=0;exitX=0.5;exitY=0;exitDx=0;exitDy=0;" parent="1" source="HiHLQ8zvASw_HJKXryYm-15" target="HiHLQ8zvASw_HJKXryYm-10" edge="1">
          <mxGeometry width="50" height="50" relative="1" as="geometry">
            <mxPoint x="330" y="500" as="sourcePoint" />
            <mxPoint x="330" y="490" as="targetPoint" />
          </mxGeometry>
        </mxCell>
        <mxCell id="HiHLQ8zvASw_HJKXryYm-25" value="&lt;font style=&quot;font-size: 10px;&quot;&gt;Macht API Aufruf mithilfe&lt;/font&gt;" style="edgeLabel;html=1;align=center;verticalAlign=middle;resizable=0;points=[];" parent="HiHLQ8zvASw_HJKXryYm-24" vertex="1" connectable="0">
          <mxGeometry x="0.3038" y="-2" relative="1" as="geometry">
            <mxPoint x="265" y="8" as="offset" />
          </mxGeometry>
        </mxCell>
        <mxCell id="HiHLQ8zvASw_HJKXryYm-31" value="" style="endArrow=none;dashed=1;html=1;dashPattern=1 3;strokeWidth=2;rounded=0;exitX=0.5;exitY=0;exitDx=0;exitDy=0;entryX=0.5;entryY=1;entryDx=0;entryDy=0;" parent="1" source="HiHLQ8zvASw_HJKXryYm-22" target="HiHLQ8zvASw_HJKXryYm-15" edge="1">
          <mxGeometry width="50" height="50" relative="1" as="geometry">
            <mxPoint x="170" y="540" as="sourcePoint" />
            <mxPoint x="220" y="490" as="targetPoint" />
          </mxGeometry>
        </mxCell>
        <mxCell id="HiHLQ8zvASw_HJKXryYm-32" value="&lt;font style=&quot;font-size: 10px;&quot;&gt;Tätigt API Aufrufe&amp;nbsp;&lt;br&gt;[JSON]&lt;/font&gt;" style="edgeLabel;html=1;align=center;verticalAlign=middle;resizable=0;points=[];" parent="HiHLQ8zvASw_HJKXryYm-31" vertex="1" connectable="0">
          <mxGeometry x="-0.3909" relative="1" as="geometry">
            <mxPoint x="49" y="-15" as="offset" />
          </mxGeometry>
        </mxCell>
        <mxCell id="HiHLQ8zvASw_HJKXryYm-36" value="&lt;font style=&quot;font-size: 11px;&quot;&gt;Erlaubt den User geschossene Bilder an das Backend zu senden und bewerten zu lassen.&lt;/font&gt;" style="rounded=0;whiteSpace=wrap;html=1;fillColor=#ffe6cc;strokeColor=#d79b00;fontStyle=2" parent="1" vertex="1">
          <mxGeometry x="304.48" y="360" width="175.52" height="120" as="geometry" />
        </mxCell>
        <mxCell id="HiHLQ8zvASw_HJKXryYm-35" value="&lt;font size=&quot;1&quot;&gt;Image Repository&lt;/font&gt;" style="text;html=1;align=center;verticalAlign=middle;whiteSpace=wrap;rounded=0;fontSize=9;fontStyle=2" parent="1" vertex="1">
          <mxGeometry x="309.48" y="360" width="140" height="30" as="geometry" />
        </mxCell>
        <mxCell id="HiHLQ8zvASw_HJKXryYm-37" value="&lt;font style=&quot;font-size: 8px;&quot;&gt;[Container: Kotlin}&lt;/font&gt;" style="text;html=1;align=center;verticalAlign=middle;whiteSpace=wrap;rounded=0;fontStyle=2" parent="1" vertex="1">
          <mxGeometry x="320.68" y="380" width="107.62" height="10" as="geometry" />
        </mxCell>
        <mxCell id="HiHLQ8zvASw_HJKXryYm-38" value="" style="endArrow=none;dashed=1;html=1;dashPattern=1 3;strokeWidth=2;rounded=0;entryX=0.5;entryY=1;entryDx=0;entryDy=0;exitX=0.5;exitY=0;exitDx=0;exitDy=0;" parent="1" source="HiHLQ8zvASw_HJKXryYm-15" target="HiHLQ8zvASw_HJKXryYm-36" edge="1">
          <mxGeometry width="50" height="50" relative="1" as="geometry">
            <mxPoint x="300" y="520" as="sourcePoint" />
            <mxPoint x="195" y="480" as="targetPoint" />
          </mxGeometry>
        </mxCell>
        <mxCell id="HiHLQ8zvASw_HJKXryYm-40" value="&lt;font size=&quot;1&quot;&gt;API&lt;/font&gt;" style="text;html=1;align=center;verticalAlign=middle;whiteSpace=wrap;rounded=0;fontSize=9;" parent="1" vertex="1">
          <mxGeometry x="529.75" y="519.88" width="140" height="30" as="geometry" />
        </mxCell>
        <mxCell id="HiHLQ8zvASw_HJKXryYm-41" value="&lt;font style=&quot;font-size: 8px;&quot;&gt;[Container: Kotlin}&lt;/font&gt;" style="text;html=1;align=center;verticalAlign=middle;whiteSpace=wrap;rounded=0;" parent="1" vertex="1">
          <mxGeometry x="544.8199999999999" y="539.88" width="107.62" height="10" as="geometry" />
        </mxCell>
        <mxCell id="HiHLQ8zvASw_HJKXryYm-42" value="&lt;font style=&quot;font-size: 11px;&quot;&gt;Schießt Foto von Hautlässion&lt;/font&gt;" style="text;html=1;align=center;verticalAlign=middle;resizable=0;points=[];autosize=1;strokeColor=none;fillColor=none;" parent="1" vertex="1">
          <mxGeometry x="400" y="300" width="170" height="30" as="geometry" />
        </mxCell>
        <mxCell id="HiHLQ8zvASw_HJKXryYm-43" value="Logt sich ein oder registriert sich" style="text;html=1;align=center;verticalAlign=middle;resizable=0;points=[];autosize=1;strokeColor=none;fillColor=none;" parent="1" vertex="1">
          <mxGeometry x="163.81" y="280" width="200" height="30" as="geometry" />
        </mxCell>
        <mxCell id="bBurTmSAv8wiJFiPgF4I-1" value="&lt;font style=&quot;font-size: 11px;&quot;&gt;Fordert die Modelle an. Erforderlich für den Report und fürs Trainieren.&lt;/font&gt;" style="rounded=0;whiteSpace=wrap;html=1;fillColor=#ffe6cc;strokeColor=#d79b00;fontStyle=2" vertex="1" parent="1">
          <mxGeometry x="690" y="360" width="170" height="120" as="geometry" />
        </mxCell>
        <mxCell id="bBurTmSAv8wiJFiPgF4I-2" value="&lt;font size=&quot;1&quot;&gt;Model Repository&lt;/font&gt;" style="text;html=1;align=center;verticalAlign=middle;whiteSpace=wrap;rounded=0;fontSize=9;fontStyle=2" vertex="1" parent="1">
          <mxGeometry x="695" y="360" width="140" height="30" as="geometry" />
        </mxCell>
        <mxCell id="bBurTmSAv8wiJFiPgF4I-3" value="&lt;font style=&quot;font-size: 8px;&quot;&gt;[Container: Kotlin}&lt;/font&gt;" style="text;html=1;align=center;verticalAlign=middle;whiteSpace=wrap;rounded=0;fontStyle=2" vertex="1" parent="1">
          <mxGeometry x="706.2" y="380" width="107.62" height="10" as="geometry" />
        </mxCell>
        <mxCell id="bBurTmSAv8wiJFiPgF4I-4" value="&lt;font style=&quot;font-size: 11px;&quot;&gt;Erlaubt den Benutzer Methoden auszuführen, die nur einem Admin zustehen: Trainieren und Reportn&lt;/font&gt;" style="rounded=0;whiteSpace=wrap;html=1;fillColor=#ffe6cc;strokeColor=#d79b00;fontStyle=2" vertex="1" parent="1">
          <mxGeometry x="870" y="360" width="170" height="120" as="geometry" />
        </mxCell>
        <mxCell id="bBurTmSAv8wiJFiPgF4I-5" value="&lt;font size=&quot;1&quot;&gt;Admin Repository&lt;/font&gt;" style="text;html=1;align=center;verticalAlign=middle;whiteSpace=wrap;rounded=0;fontSize=9;fontStyle=2" vertex="1" parent="1">
          <mxGeometry x="875" y="360" width="140" height="30" as="geometry" />
        </mxCell>
        <mxCell id="bBurTmSAv8wiJFiPgF4I-6" value="&lt;font style=&quot;font-size: 8px;&quot;&gt;[Container: Kotlin}&lt;/font&gt;" style="text;html=1;align=center;verticalAlign=middle;whiteSpace=wrap;rounded=0;fontStyle=2" vertex="1" parent="1">
          <mxGeometry x="886.2" y="380" width="107.62" height="10" as="geometry" />
        </mxCell>
        <mxCell id="bBurTmSAv8wiJFiPgF4I-13" value="" style="endArrow=none;dashed=1;html=1;dashPattern=1 3;strokeWidth=2;rounded=0;exitX=0.5;exitY=1;exitDx=0;exitDy=0;entryX=0.616;entryY=0.081;entryDx=0;entryDy=0;entryPerimeter=0;" edge="1" parent="1" source="HiHLQ8zvASw_HJKXryYm-2" target="bBurTmSAv8wiJFiPgF4I-2">
          <mxGeometry width="50" height="50" relative="1" as="geometry">
            <mxPoint x="600" y="260" as="sourcePoint" />
            <mxPoint x="396" y="370" as="targetPoint" />
          </mxGeometry>
        </mxCell>
        <mxCell id="bBurTmSAv8wiJFiPgF4I-16" value="&lt;font&gt;Fordert Modelle an&lt;/font&gt;" style="text;html=1;align=center;verticalAlign=middle;resizable=0;points=[];autosize=1;strokeColor=none;fillColor=none;" vertex="1" parent="1">
          <mxGeometry x="590" y="300" width="120" height="30" as="geometry" />
        </mxCell>
        <mxCell id="bBurTmSAv8wiJFiPgF4I-17" value="" style="endArrow=none;dashed=1;html=1;dashPattern=1 3;strokeWidth=2;rounded=0;exitX=0.5;exitY=1;exitDx=0;exitDy=0;entryX=0.585;entryY=0.128;entryDx=0;entryDy=0;entryPerimeter=0;" edge="1" parent="1" source="HiHLQ8zvASw_HJKXryYm-2" target="bBurTmSAv8wiJFiPgF4I-5">
          <mxGeometry width="50" height="50" relative="1" as="geometry">
            <mxPoint x="600" y="260" as="sourcePoint" />
            <mxPoint x="781" y="372" as="targetPoint" />
          </mxGeometry>
        </mxCell>
        <mxCell id="bBurTmSAv8wiJFiPgF4I-18" value="&lt;font&gt;Trainiert ein Modell&lt;/font&gt;" style="text;html=1;align=center;verticalAlign=middle;resizable=0;points=[];autosize=1;strokeColor=none;fillColor=none;" vertex="1" parent="1">
          <mxGeometry x="822" y="280" width="130" height="30" as="geometry" />
        </mxCell>
        <mxCell id="bBurTmSAv8wiJFiPgF4I-19" value="&lt;span style=&quot;font-size: 11px;&quot;&gt;Speichert die Benutzer-Daten, damit sie überall im Projekt angesteuert werden können.&lt;/span&gt;" style="rounded=0;whiteSpace=wrap;html=1;fillColor=#ffe6cc;strokeColor=#d79b00;fontStyle=2" vertex="1" parent="1">
          <mxGeometry x="1050" y="360" width="170" height="120" as="geometry" />
        </mxCell>
        <mxCell id="bBurTmSAv8wiJFiPgF4I-20" value="&lt;font size=&quot;1&quot;&gt;User Repository&lt;/font&gt;" style="text;html=1;align=center;verticalAlign=middle;whiteSpace=wrap;rounded=0;fontSize=9;fontStyle=2" vertex="1" parent="1">
          <mxGeometry x="1055" y="360" width="140" height="30" as="geometry" />
        </mxCell>
        <mxCell id="bBurTmSAv8wiJFiPgF4I-21" value="&lt;font style=&quot;font-size: 8px;&quot;&gt;[Container: Kotlin}&lt;/font&gt;" style="text;html=1;align=center;verticalAlign=middle;whiteSpace=wrap;rounded=0;fontStyle=2" vertex="1" parent="1">
          <mxGeometry x="1066.2" y="380" width="107.62" height="10" as="geometry" />
        </mxCell>
        <mxCell id="bBurTmSAv8wiJFiPgF4I-22" value="" style="endArrow=none;dashed=1;html=1;dashPattern=1 3;strokeWidth=2;rounded=0;entryX=0.541;entryY=-0.064;entryDx=0;entryDy=0;entryPerimeter=0;" edge="1" parent="1" target="bBurTmSAv8wiJFiPgF4I-20">
          <mxGeometry width="50" height="50" relative="1" as="geometry">
            <mxPoint x="590" y="250" as="sourcePoint" />
            <mxPoint x="791" y="372" as="targetPoint" />
          </mxGeometry>
        </mxCell>
        <mxCell id="bBurTmSAv8wiJFiPgF4I-23" value="&lt;span style=&quot;font-size: 11px;&quot;&gt;Speichert und Lädt den aktuellen User&lt;/span&gt;" style="text;html=1;align=center;verticalAlign=middle;resizable=0;points=[];autosize=1;strokeColor=none;fillColor=none;" vertex="1" parent="1">
          <mxGeometry x="963.8199999999999" y="290" width="210" height="30" as="geometry" />
        </mxCell>
        <mxCell id="bBurTmSAv8wiJFiPgF4I-24" value="" style="endArrow=none;dashed=1;html=1;dashPattern=1 3;strokeWidth=2;rounded=0;entryX=0.5;entryY=1;entryDx=0;entryDy=0;exitX=0.5;exitY=0;exitDx=0;exitDy=0;" edge="1" parent="1" source="HiHLQ8zvASw_HJKXryYm-40" target="bBurTmSAv8wiJFiPgF4I-4">
          <mxGeometry width="50" height="50" relative="1" as="geometry">
            <mxPoint x="612" y="530" as="sourcePoint" />
            <mxPoint x="200" y="480" as="targetPoint" />
          </mxGeometry>
        </mxCell>
        <mxCell id="bBurTmSAv8wiJFiPgF4I-26" value="" style="endArrow=none;dashed=1;html=1;dashPattern=1 3;strokeWidth=2;rounded=0;entryX=0.534;entryY=0.994;entryDx=0;entryDy=0;exitX=0.5;exitY=0;exitDx=0;exitDy=0;entryPerimeter=0;" edge="1" parent="1" source="HiHLQ8zvASw_HJKXryYm-40" target="bBurTmSAv8wiJFiPgF4I-1">
          <mxGeometry width="50" height="50" relative="1" as="geometry">
            <mxPoint x="610" y="530" as="sourcePoint" />
            <mxPoint x="965" y="490" as="targetPoint" />
          </mxGeometry>
        </mxCell>
        <mxCell id="bBurTmSAv8wiJFiPgF4I-80" value="Mobile App" style="text;html=1;align=center;verticalAlign=middle;resizable=0;points=[];autosize=1;strokeColor=none;fillColor=none;" vertex="1" parent="1">
          <mxGeometry x="1136" y="600" width="80" height="30" as="geometry" />
        </mxCell>
      </root>
    </mxGraphModel>
  </diagram>
</mxfile>
